<svg xmlns="http://www.w3.org/2000/svg" viewBox="0 0 400 450" fill="none">
  <!-- Hand and Wrench Icon (Cleaned up version of the path) -->
  <g transform="translate(50, 20) scale(0.07)">
    <path 
      d="M1230.25 2191.15c0,0 108.13,-100.16 126.29,-183.99 18.16,-83.82 25.14,-196.98 60.07,-290.58 34.93,-93.6 78.23,-148.08 118.75,-191.39 40.51,-43.31 118.75,-114.56 118.75,-114.56l132.72 132.72c0,0 -3.4,44.38 16.81,61.83 20.21,17.45 56.03,20.21 86.35,-4.59 30.31,-24.8 372.94,-372.02 372.94,-372.02 0,0 35.83,-27.56 63.38,-33.07 27.56,-5.51 82.67,-4.59 101.96,31.23 19.29,35.83 24.8,53.28 11.94,93.69 -12.86,40.42 -11.02,70.73 3.68,90.02 14.7,19.29 63.38,10.1 90.02,5.51 26.64,-4.59 61.28,-5.3 88.53,15.83 27.25,21.13 47.64,46.76 45.65,76.55 -1.99,29.79 -22.64,57.2 -18.27,82.22 4.37,25.02 29.79,47.66 69.91,51.24 27.56,2.45 173.78,-73.17 160.9,62.04 -3.2,33.6 -98.21,221.99 49.53,167.93 24.77,-9.06 50.74,-24.16 74.3,-20.54 23.56,3.62 83.97,30.81 80.34,97.26 -3.63,66.45 -123.23,190.89 -172.76,234.38 -49.53,43.49 -429.43,424.8 -499.16,454.38 -69.73,29.58 -99.32,42.26 -209.2,53.89 -109.88,11.62 -135.24,-1.06 -209.2,58.11 -73.96,59.17 -138.41,118.34 -153.2,146.86 -14.79,28.53 -12.68,73.96 36.98,86.64 49.66,12.68 146.87,-97.21 190.18,-122.56 43.32,-25.36 48.6,-24.3 110.94,-38.04 62.34,-13.73 188.07,9.51 304.29,-79.24 116.22,-88.75 267.31,-228.22 267.31,-228.22 0,0 219.76,231.39 272.59,272.6 221.73,172.93 524.69,-126.26 313.8,-326.48 -84,-79.76 -258.64,-247.45 -252.52,-253.57 6.12,-6.13 141.58,-129.96 144.75,-219.77 3.17,-89.81 -22.19,-152.15 -86.64,-192.3 -64.45,-40.15 -98.26,-43.32 -114.11,-42.26 -15.85,1.06 -34.87,7.39 -34.87,7.39 29.26,-90.21 -18.29,-210.81 -108.82,-243.01 -47.55,-16.91 -98.26,-6.34 -98.26,-6.34 0,0 11.62,-92.98 -45.43,-160.6 -57.05,-67.62 -180.67,-65.51 -180.67,-65.51 0,0 28.52,-80.3 -40.15,-150.03 -68.67,-69.73 -115.16,-95.09 -216.6,-81.36 -101.43,13.74 -208.14,145.81 -208.14,145.81l-269.42 -253.57c0,0 17.96,-73.96 14.79,-144.75 -3.17,-70.79 -15.85,-122.56 -103.54,-213.43 -87.69,-90.87 -226.1,-199.69 -226.1,-199.69 0,0 -63.39,-17.96 -119.39,-16.9 -56,1.06 -146.86,47.55 -163.77,68.68 -16.91,21.13 -38.04,44.37 -38.04,44.37l227.69 227.69 -149.51 144.22 -236.67 -236.67c0,0 -135.24,109.88 -82.41,252.52 52.83,142.64 188.07,272.6 188.07,272.6 0,0 101.43,121.5 183.84,136.3 82.41,14.79 190.18,-21.13 190.18,-21.13l56.52 56.53c0,0 -140.21,108.09 -191.95,200.48 -51.74,92.4 -88.7,208.82 -96.09,275.34 -7.39,66.53 -5.54,136.75 -31.41,171.86 -25.87,35.11 -22.18,46.2 -77.62,107.18 -30.81,33.89 -136.88,107.85 -51.74,158.92 63.62,38.17 72.61,-3.86 110.92,-38.66zm1771.18 97.02l-154.28 128.92c0,0 230.79,249.66 267.55,276.03 36.76,26.37 119.05,24.77 147.82,-6.39 28.77,-31.16 24.77,-86.29 17.58,-111.06 -7.19,-24.77 -278.67,-287.49 -278.67,-287.49zm-1921.68 -1468.63l202.5 186.43 302.15 -302.15 -212.15 -191.25c0,0 70.72,-20.89 139.82,17.68 69.11,38.57 220.18,229.82 220.18,229.82 0,0 14.46,70.71 -12.86,122.14 -27.32,51.43 -36.96,78.75 -6.43,117.32 30.54,38.57 298.93,297.32 298.93,297.32l-153.48 153.48c0,0 -261.16,-301.34 -299.74,-319.02 -38.57,-17.68 -81.97,6.43 -109.29,22.5 -27.32,16.07 -91.61,16.07 -139.82,-6.43 -48.22,-22.5 -216.97,-192.86 -233.04,-218.57 -16.07,-25.72 3.22,-109.29 3.22,-109.29z"
      fill="#17AD7F"
    />
  </g>
  
  <!-- "OFICINA EM" Text -->
  <text x="200" y="320" font-family="Inter, sans-serif" font-weight="800" font-size="42" fill="white" text-anchor="middle" letter-spacing="2">
    OFICINA EM
  </text>
  
  <!-- "ORDEM" Text -->
  <text x="200" y="380" font-family="Inter, sans-serif" font-weight="800" font-size="54" fill="#17AD7F" text-anchor="middle" letter-spacing="4">
    ORDEM
  </text>
</svg>
