<svg width="512" height="512" viewBox="0 0 512 512" fill="none" xmlns="http://www.w3.org/2000/svg">
  <circle cx="256" cy="256" r="240" fill="#1A1F2C" stroke="#82E9DE" stroke-width="12"/>
  <circle cx="256" cy="256" r="225" fill="none" stroke="#82E9DE" stroke-width="2" stroke-dasharray="10 5"/>
  
  <g transform="translate(120, 100) scale(1.1)">
    <path d="M211.5 190.5L257.5 144.5C266.5 135.5 266.5 120.5 257.5 111.5L245.5 99.5C236.5 90.5 221.5 90.5 212.5 99.5L166.5 145.5" stroke="#82E9DE" stroke-width="14" stroke-linecap="round" stroke-linejoin="round"/>
    <path d="M125.5 231.5L145.5 211.5M145.5 211.5L165.5 191.5M165.5 191.5L185.5 171.5" stroke="#82E9DE" stroke-width="14" stroke-linecap="round"/>
    
    <!-- Wrench Head -->
    <path d="M152 75C140 60 115 55 95 65C75 75 65 100 75 120L115 160" stroke="#82E9DE" stroke-width="14" stroke-linecap="round" stroke-linejoin="round" fill="none"/>
    <path d="M85 85L110 110" stroke="#82E9DE" stroke-width="14" stroke-linecap="round"/>
    
    <!-- Hand Symbol Simplified and Robust -->
    <path d="M110 240C90 260 60 260 40 240L20 220C0 200 0 170 20 150L80 90" stroke="#82E9DE" stroke-width="16" stroke-linecap="round" stroke-linejoin="round" fill="none"/>
    <path d="M60 170C80 150 110 150 130 170" stroke="#82E9DE" stroke-width="14" stroke-linecap="round" fill="none"/>
    <path d="M80 190C100 170 130 170 150 190" stroke="#82E9DE" stroke-width="14" stroke-linecap="round" fill="none"/>
    <path d="M100 210C120 190 150 190 170 210" stroke="#82E9DE" stroke-width="14" stroke-linecap="round" fill="none"/>
  </g>

  <!-- Text -->
  <text x="256" y="380" fill="#82E9DE" font-family="Inter, sans-serif" font-weight="800" font-size="48" text-anchor="middle" letter-spacing="2">OFICINA EM</text>
  <text x="256" y="440" fill="#82E9DE" font-family="Inter, sans-serif" font-weight="800" font-size="56" text-anchor="middle" letter-spacing="4">ORDEM</text>
</svg>
